<?xml version="1.0" encoding="UTF-8"?>
<!DOCTYPE svg PUBLIC "-//W3C//DTD SVG 1.1//EN" "http://www.w3.org/Graphics/SVG/1.1/DTD/svg11.dtd">
<svg xmlns="http://www.w3.org/2000/svg" version="1.1" width="512px" height="512px" style="shape-rendering:geometricPrecision; text-rendering:geometricPrecision; image-rendering:optimizeQuality; fill-rule:evenodd; clip-rule:evenodd" xmlns:xlink="http://www.w3.org/1999/xlink">
<g><path style="opacity:0.944" fill="#040302" d="M 279.5,-0.5 C 282.167,-0.5 284.833,-0.5 287.5,-0.5C 289.97,1.08167 291.47,3.41501 292,6.5C 295.119,23.884 298.453,41.2173 302,58.5C 303.543,60.3783 305.376,61.8783 307.5,63C 335.888,67.368 361.555,78.0346 384.5,95C 388.12,95.8407 391.454,95.174 394.5,93C 407.993,83.4195 421.66,74.0861 435.5,65C 446.073,63.9116 449.573,68.4116 446,78.5C 436.667,91.8333 427.333,105.167 418,118.5C 416.543,121.366 416.21,124.366 417,127.5C 434.53,151.897 446.03,178.897 451.5,208.5C 452.665,209.584 453.998,210.417 455.5,211C 472.876,214.118 490.21,217.452 507.5,221C 509.35,221.69 510.684,222.856 511.5,224.5C 511.5,227.167 511.5,229.833 511.5,232.5C 510.254,234.901 508.254,236.401 505.5,237C 488.124,240.118 470.79,243.452 453.5,247C 451.19,248.637 449.69,250.804 449,253.5C 447.795,261.651 445.962,269.651 443.5,277.5C 481.64,291.166 504.307,317.833 511.5,357.5C 511.5,367.167 511.5,376.833 511.5,386.5C 502.265,443.245 470.932,482.412 417.5,504C 407.225,507.32 396.892,509.82 386.5,511.5C 299.167,511.5 211.833,511.5 124.5,511.5C 68.9068,502.752 30.0734,472.419 8,420.5C 4.19244,409.27 1.35911,397.937 -0.5,386.5C -0.5,372.167 -0.5,357.833 -0.5,343.5C 10.8087,289.03 44.142,258.196 99.5,251C 105.528,250.594 111.528,250.594 117.5,251C 115.95,247.554 113.283,245.554 109.5,245C 92.1084,241.922 74.775,238.588 57.5,235C 52.1667,230 52.1667,225 57.5,220C 74.7827,216.453 92.116,213.119 109.5,210C 112.548,209.394 115.048,207.894 117,205.5C 121.776,176.49 132.776,150.156 150,126.5C 150.755,123.697 150.422,121.03 149,118.5C 139,103.833 129,89.1667 119,74.5C 118.223,65.2901 122.389,61.7901 131.5,64C 146.921,75.1267 162.754,85.6267 179,95.5C 191.212,88.3073 203.712,81.474 216.5,75C 230.351,69.2871 244.685,65.2871 259.5,63C 263.165,61.332 265.332,58.4987 266,54.5C 269,38.1667 272,21.8333 275,5.5C 275.804,2.85408 277.304,0.854084 279.5,-0.5 Z"/></g>
<g><path style="opacity:1" fill="#fdcd49" d="M 282.5,8.5 C 283.649,8.79106 284.316,9.62439 284.5,11C 287.506,27.87 290.673,44.7034 294,61.5C 296.552,65.7189 300.052,68.8855 304.5,71C 332.895,75.3719 358.562,86.0386 381.5,103C 387.922,104.301 393.922,103.301 399.5,100C 411.5,91.6667 423.5,83.3333 435.5,75C 436.332,74.3123 436.998,74.479 437.5,75.5C 427.079,89.7579 417.245,104.425 408,119.5C 407.113,124.072 407.78,128.405 410,132.5C 426.645,154.803 436.978,179.803 441,207.5C 442.769,212.935 446.269,216.768 451.5,219C 467.865,222.008 484.198,225.175 500.5,228.5C 483.052,231.826 465.719,235.659 448.5,240C 445.238,242.592 442.738,245.759 441,249.5C 439.68,258.29 437.846,266.956 435.5,275.5C 421.842,274.882 408.175,274.382 394.5,274C 390.725,272.558 387.892,270.058 386,266.5C 367.514,211.688 329.681,179.521 272.5,170C 210.499,165.906 164.999,191.073 136,245.5C 133.888,248.284 131.221,250.284 128,251.5C 125.844,249.199 124.178,246.533 123,243.5C 120.441,240.469 117.274,238.302 113.5,237C 96.7693,234.15 80.1027,230.984 63.5,227.5C 79.7514,224.017 96.0848,220.85 112.5,218C 118.113,216.718 122.28,213.551 125,208.5C 128.324,187.2 135.324,167.2 146,148.5C 150.395,142.434 154.395,136.1 158,129.5C 159.091,123.903 158.424,118.57 156,113.5C 146.186,100.158 137.186,86.491 129,72.5C 143.079,82.4566 157.246,92.2899 171.5,102C 175.761,103.363 180.095,103.696 184.5,103C 208.598,85.9562 235.265,74.9562 264.5,70C 269.551,67.2801 272.718,63.1135 274,57.5C 277.159,41.2082 279.992,24.8749 282.5,8.5 Z"/></g>
<g><path style="opacity:1" fill="#b6dce9" d="M 239.5,177.5 C 300.948,173.518 345.448,198.851 373,253.5C 375.197,259.091 377.197,264.758 379,270.5C 382.274,275.774 386.774,279.608 392.5,282C 422.718,278.194 449.718,285.527 473.5,304C 502.772,333.262 510.938,367.762 498,407.5C 479.474,462.192 441.641,494.025 384.5,503C 298.5,503.667 212.5,503.667 126.5,503C 69.3772,494.031 31.5439,462.197 13,407.5C 7.7328,387.164 6.06613,366.498 8,345.5C 17.0596,298.107 45.2263,269.607 92.5,260C 104.175,259.728 115.842,259.728 127.5,260C 138.374,256.124 145.541,248.624 149,237.5C 170.497,204.516 200.664,184.516 239.5,177.5 Z"/></g>
</svg>
