<?xml version="1.0" encoding="UTF-8"?>
<!DOCTYPE svg PUBLIC "-//W3C//DTD SVG 1.1//EN" "http://www.w3.org/Graphics/SVG/1.1/DTD/svg11.dtd">
<svg xmlns="http://www.w3.org/2000/svg" version="1.1" width="512px" height="512px" style="shape-rendering:geometricPrecision; text-rendering:geometricPrecision; image-rendering:optimizeQuality; fill-rule:evenodd; clip-rule:evenodd" xmlns:xlink="http://www.w3.org/1999/xlink">
<g><path style="opacity:0.989" fill="#000000" d="M 126.5,10.5 C 143.493,8.33061 159.159,11.8306 173.5,21C 179.5,26 185.5,31 191.5,36C 194.167,36.6667 196.833,36.6667 199.5,36C 231.95,27.9761 255.783,38.8094 271,68.5C 283.197,73.5993 293.864,80.9327 303,90.5C 319.825,114.321 319.492,137.988 302,161.5C 290.411,174.377 275.911,181.544 258.5,183C 254.803,188.886 250.97,194.719 247,200.5C 225.707,221.161 202.373,223.827 177,208.5C 168.092,214.04 158.926,219.206 149.5,224C 124.507,231.961 103.341,226.127 86,206.5C 81.9571,200.247 77.7905,194.08 73.5,188C 36.9555,179.126 20.1222,155.959 23,118.5C 25.7499,104.829 32.2499,93.3287 42.5,84C 49.9576,78.8543 57.7909,74.3543 66,70.5C 73.5354,37.4633 93.7021,17.4633 126.5,10.5 Z"/></g>
<g><path style="opacity:0.981" fill="#000000" d="M -0.5,294.5 C -0.5,290.833 -0.5,287.167 -0.5,283.5C 4.71511,274.598 12.0484,272.431 21.5,277C 43.4693,305.315 70.4693,327.315 102.5,343C 155.659,361.285 206.992,356.952 256.5,330C 299.809,302.274 326.976,263.108 338,212.5C 347.405,172.594 341.738,134.927 321,99.5C 307.707,74.1094 289.207,53.2761 265.5,37C 257.669,30.5122 256.502,23.0122 262,14.5C 264.906,11.6314 268.406,10.2981 272.5,10.5C 353.21,27.7678 411.043,73.7678 446,148.5C 469.122,203.937 471.455,260.27 453,317.5C 452.586,317.957 452.086,318.291 451.5,318.5C 439.843,312.536 427.51,310.369 414.5,312C 410.216,313.326 405.883,313.992 401.5,314C 377.965,290.559 350.632,284.892 319.5,297C 296.516,307.434 281.849,324.934 275.5,349.5C 244.375,363.406 230.541,387.406 234,421.5C 240.081,447.584 255.914,464.75 281.5,473C 192.102,490.786 115.935,466.953 53,401.5C 26.1298,370.426 8.29651,334.76 -0.5,294.5 Z"/></g>
<g><path style="opacity:0.988" fill="#000000" d="M 511.5,396.5 C 511.5,402.833 511.5,409.167 511.5,415.5C 504.796,442.524 487.463,457.524 459.5,460.5C 442.329,492.293 417.663,499.959 385.5,483.5C 376.995,488.587 368.328,493.42 359.5,498C 338.006,504.437 319.506,499.604 304,483.5C 299.833,477.333 295.667,471.167 291.5,465C 255.839,455.688 240.673,432.855 246,396.5C 252.214,377.286 264.88,364.286 284,357.5C 296.961,312.608 326.127,295.441 371.5,306C 381.569,310.401 390.236,316.734 397.5,325C 398.5,325.333 399.5,325.667 400.5,326C 407.825,324.205 415.325,323.038 423,322.5C 439.3,322.65 452.633,328.984 463,341.5C 466.129,346.926 469.629,352.093 473.5,357C 492.882,363.879 505.549,377.046 511.5,396.5 Z"/></g>
</svg>
