<?xml version="1.0" encoding="UTF-8"?>
<!DOCTYPE svg PUBLIC "-//W3C//DTD SVG 1.1//EN" "http://www.w3.org/Graphics/SVG/1.1/DTD/svg11.dtd">
<svg xmlns="http://www.w3.org/2000/svg" version="1.1" width="512px" height="512px" style="shape-rendering:geometricPrecision; text-rendering:geometricPrecision; image-rendering:optimizeQuality; fill-rule:evenodd; clip-rule:evenodd" xmlns:xlink="http://www.w3.org/1999/xlink">
<g><path style="opacity:0.985" fill="#000000" d="M 251.5,31.5 C 335.997,27.3326 401.83,59.9993 449,129.5C 480.755,183.134 487.921,239.8 470.5,299.5C 457.421,290.645 442.921,286.645 427,287.5C 412.38,286.863 398.88,290.363 386.5,298C 380.631,303.207 374.798,308.374 369,313.5C 346.394,308.82 327.06,314.82 311,331.5C 308.344,335.144 306.511,339.144 305.5,343.5C 279.64,341.539 265.64,353.372 263.5,379C 263.263,383.656 264.93,387.322 268.5,390C 316.775,391.319 365.108,391.986 413.5,392C 381.109,421.822 342.942,439.989 299,446.5C 283.107,435.985 265.607,431.652 246.5,433.5C 246.085,411.672 236.585,395.005 218,383.5C 227.886,359.212 223.052,338.378 203.5,321C 188.689,311.712 173.022,310.046 156.5,316C 150.125,318.89 144.459,322.723 139.5,327.5C 119.936,319.759 99.9361,318.092 79.5,322.5C 64.2479,284.815 59.5812,245.815 65.5,205.5C 94.7301,210.3 117.897,200.633 135,176.5C 149.178,146.216 143.345,120.55 117.5,99.5C 153.739,60.3801 198.406,37.7134 251.5,31.5 Z M 271.5,56.5 C 295.471,54.3272 310.971,64.6606 318,87.5C 320.086,115.748 307.086,131.748 279,135.5C 251.434,131.27 238.767,115.27 241,87.5C 245.349,71.3186 255.516,60.9852 271.5,56.5 Z M 367.5,119.5 C 372.833,119.5 378.167,119.5 383.5,119.5C 383.5,124.833 383.5,130.167 383.5,135.5C 378.167,135.5 372.833,135.5 367.5,135.5C 367.5,130.167 367.5,124.833 367.5,119.5 Z M 183.5,135.5 C 188.833,135.5 194.167,135.5 199.5,135.5C 199.5,140.833 199.5,146.167 199.5,151.5C 194.167,151.5 188.833,151.5 183.5,151.5C 183.5,146.167 183.5,140.833 183.5,135.5 Z M 204.5,192.5 C 223.82,189.555 240.654,194.555 255,207.5C 265.931,222.965 264.764,237.465 251.5,251C 233.572,263.186 214.238,265.853 193.5,259C 170.809,249.802 163.976,233.968 173,211.5C 181.274,201.448 191.774,195.114 204.5,192.5 Z M 416.5,192.5 C 442.976,191.476 455.476,204.142 454,230.5C 449.45,245.949 439.117,254.282 423,255.5C 400.733,251.974 390.733,238.974 393,216.5C 396.349,203.985 404.182,195.985 416.5,192.5 Z M 327.5,247.5 C 332.833,247.5 338.167,247.5 343.5,247.5C 343.5,252.833 343.5,258.167 343.5,263.5C 338.167,263.5 332.833,263.5 327.5,263.5C 327.5,258.167 327.5,252.833 327.5,247.5 Z"/></g>
<g><path style="opacity:0.959" fill="#000000" d="M 272.5,71.5 C 287.367,69.0115 297.534,74.6782 303,88.5C 305.982,103.376 300.482,113.543 286.5,119C 271.624,121.982 261.457,116.482 256,102.5C 253.146,87.5328 258.646,77.1994 272.5,71.5 Z"/></g>
<g><path style="opacity:0.958" fill="#000000" d="M 106.5,111.5 C 120.648,119.106 127.648,131.106 127.5,147.5C 126.909,165.506 118.575,178.673 102.5,187C 91.3993,191.585 80.0659,192.585 68.5,190C 76.2511,161.334 88.9178,135.167 106.5,111.5 Z"/></g>
<g><path style="opacity:0.96" fill="#000000" d="M 205.5,207.5 C 212.175,207.334 218.842,207.5 225.5,208C 235.129,209.313 242.296,214.147 247,222.5C 248.842,231.649 245.676,238.482 237.5,243C 227.239,247.249 216.573,248.583 205.5,247C 195.871,245.687 188.704,240.853 184,232.5C 182.064,224.876 184.23,218.709 190.5,214C 195.29,211.133 200.29,208.967 205.5,207.5 Z"/></g>
<g><path style="opacity:0.937" fill="#000000" d="M 417.5,207.5 C 436.778,206.61 443.278,215.276 437,233.5C 430.055,240.069 422.222,241.236 413.5,237C 406.931,230.055 405.764,222.222 410,213.5C 412.114,210.879 414.614,208.879 417.5,207.5 Z"/></g>
<g><path style="opacity:0.985" fill="#000000" d="M 409.5,303.5 C 421.505,303.333 433.505,303.5 445.5,304C 463.333,308.5 474.5,319.667 479,337.5C 479.667,345.167 479.667,352.833 479,360.5C 476.192,367.308 471.359,372.141 464.5,375C 402.834,375.5 341.168,375.667 279.5,375.5C 278.77,369.128 281.104,364.294 286.5,361C 294.731,359.727 303.064,359.06 311.5,359C 313.246,358.529 314.913,357.862 316.5,357C 319.454,340.713 329.12,331.046 345.5,328C 356.238,327.404 366.905,327.738 377.5,329C 381.12,323.711 385.12,318.711 389.5,314C 395.534,309.151 402.201,305.651 409.5,303.5 Z"/></g>
<g><path style="opacity:0.941" fill="#000000" d="M 167.5,327.5 C 195.968,325.801 209.134,339.134 207,367.5C 206.415,370.62 205.081,373.287 203,375.5C 195.83,373.085 188.663,370.751 181.5,368.5C 175.081,355.076 165.747,344.076 153.5,335.5C 157.654,331.762 162.32,329.095 167.5,327.5 Z"/></g>
<g><path style="opacity:0.988" fill="#000000" d="M 91.5,335.5 C 129.33,332.408 156.33,347.908 172.5,382C 190.98,384.706 207.147,392.206 221,404.5C 230.57,415.111 233.737,427.444 230.5,441.5C 231.986,447.48 235.819,450.146 242,449.5C 270.953,444.068 292.786,453.901 307.5,479C 235.5,479.667 163.5,479.667 91.5,479C 59,471.833 39.1667,452 32,419.5C 28.7711,374.929 48.6044,346.929 91.5,335.5 Z"/></g>
</svg>
