<?xml version="1.0" encoding="UTF-8"?>
<!DOCTYPE svg PUBLIC "-//W3C//DTD SVG 1.1//EN" "http://www.w3.org/Graphics/SVG/1.1/DTD/svg11.dtd">
<svg xmlns="http://www.w3.org/2000/svg" version="1.1" width="512px" height="512px" style="shape-rendering:geometricPrecision; text-rendering:geometricPrecision; image-rendering:optimizeQuality; fill-rule:evenodd; clip-rule:evenodd" xmlns:xlink="http://www.w3.org/1999/xlink">
<g><path style="opacity:0.974" fill="#010100" d="M 368.5,-0.5 C 379.833,-0.5 391.167,-0.5 402.5,-0.5C 440.165,3.50009 473.499,17.6668 502.5,42C 505.04,44.2047 507.207,46.7047 509,49.5C 510.26,54.8138 508.426,58.6471 503.5,61C 449.196,54.0771 407.03,73.2438 377,118.5C 353.691,162.162 355.357,204.829 382,246.5C 411.852,285.834 451.352,302.167 500.5,295.5C 509.552,297.946 511.719,303.279 507,311.5C 473.049,341.539 433.216,357.373 387.5,359C 379.375,372.119 367.708,380.119 352.5,383C 254.5,383.667 156.5,383.667 58.5,383C 29.3289,376.83 10.8289,359.33 3,330.5C -2.55204,297.781 8.61463,272.614 36.5,255C 47.4426,249.181 59.1093,246.348 71.5,246.5C 78.7371,208.868 100.07,182.702 135.5,168C 158.34,159.979 181.34,159.479 204.5,166.5C 205.442,166.392 206.275,166.059 207,165.5C 214.555,95.1828 250.055,44.6828 313.5,14C 331.257,6.47905 349.59,1.64572 368.5,-0.5 Z"/></g>
<g><path style="opacity:1" fill="#fdd13e" d="M 370.5,16.5 C 407.249,14.3539 441.249,22.8539 472.5,42C 416.453,48.0737 376.62,76.5737 353,127.5C 336.007,175.901 342.34,220.901 372,262.5C 397.948,294.227 431.448,311.893 472.5,315.5C 448.29,330.459 421.956,338.792 393.5,340.5C 396.212,317.092 387.546,299.259 367.5,287C 362.385,284.571 357.052,283.071 351.5,282.5C 346.752,248.587 328.085,226.421 295.5,216C 284.279,213.948 272.946,212.948 261.5,213C 252.333,197.833 240.167,185.667 225,176.5C 226.382,118.894 250.882,74.061 298.5,42C 320.798,28.4026 344.798,19.9026 370.5,16.5 Z"/></g>
<g><path style="opacity:1" fill="#4f5867" d="M 162.5,178.5 C 202.293,176.969 231.459,193.636 250,228.5C 251.214,230.049 252.714,231.215 254.5,232C 303.556,225.115 331.056,246.282 337,295.5C 345.801,297.257 354.301,300.09 362.5,304C 379.119,317.609 381.952,333.775 371,352.5C 365.132,359.685 357.632,364.185 348.5,366C 252.833,366.667 157.167,366.667 61.5,366C 29.2217,356.954 15.3884,335.787 20,302.5C 25.9314,282.902 38.7647,270.402 58.5,265C 67.2684,264.942 75.935,264.275 84.5,263C 85.8932,261.829 86.7265,260.329 87,258.5C 91.735,221.851 111.235,196.684 145.5,183C 151.294,181.491 156.961,179.991 162.5,178.5 Z"/></g>
<g><path style="opacity:0.922" fill="#000000" d="M 333.5,399.5 C 336.711,400.013 339.544,401.346 342,403.5C 353.081,423.33 364.414,442.997 376,462.5C 379.891,473.569 376.058,478.402 364.5,477C 363.333,475.833 362.167,474.667 361,473.5C 349.919,453.67 338.586,434.003 327,414.5C 324.302,407.24 326.469,402.24 333.5,399.5 Z"/></g>
<g><path style="opacity:0.921" fill="#000000" d="M 75.5,400.5 C 79.5164,399.9 83.0164,400.9 86,403.5C 97.0806,423.33 108.414,442.997 120,462.5C 123.891,473.569 120.058,478.402 108.5,477C 107.333,475.833 106.167,474.667 105,473.5C 92.3724,452.576 80.5391,431.242 69.5,409.5C 69.9548,405.394 71.9548,402.394 75.5,400.5 Z"/></g>
<g><path style="opacity:0.925" fill="#000000" d="M 160.5,400.5 C 165.126,399.7 168.96,401.034 172,404.5C 184.104,425.709 195.937,447.043 207.5,468.5C 204.814,478.031 199.314,480.031 191,474.5C 179.333,454.167 167.667,433.833 156,413.5C 154.379,407.923 155.879,403.589 160.5,400.5 Z"/></g>
<g><path style="opacity:0.92" fill="#000000" d="M 246.5,400.5 C 251.589,399.428 255.422,401.095 258,405.5C 268.333,423.5 278.667,441.5 289,459.5C 293.276,465.01 293.442,470.51 289.5,476C 285.219,478.109 281.052,477.942 277,475.5C 264.034,453.897 251.867,431.897 240.5,409.5C 240.944,405.402 242.944,402.402 246.5,400.5 Z"/></g>
<g><path style="opacity:0.925" fill="#000000" d="M 176.5,511.5 C 173.833,511.5 171.167,511.5 168.5,511.5C 167.312,510.636 166.145,509.636 165,508.5C 153.333,487.833 141.667,467.167 130,446.5C 129.55,436.616 134.05,433.116 143.5,436C 156.797,456.646 169.297,477.812 181,499.5C 182.526,504.761 181.026,508.761 176.5,511.5 Z"/></g>
<g><path style="opacity:0.922" fill="#000000" d="M 262.5,511.5 C 259.5,511.5 256.5,511.5 253.5,511.5C 240.508,490.858 228.008,469.858 216,448.5C 213.699,437.137 218.199,432.97 229.5,436C 241.459,456.084 253.293,476.251 265,496.5C 267.508,502.12 266.675,507.12 262.5,511.5 Z"/></g>
<g><path style="opacity:0.925" fill="#000000" d="M 347.5,511.5 C 344.5,511.5 341.5,511.5 338.5,511.5C 325.429,490.574 312.929,469.24 301,447.5C 299,437.836 302.833,433.669 312.5,435C 314.286,435.785 315.786,436.951 317,438.5C 327.333,456.5 337.667,474.5 348,492.5C 349.92,495.838 351.42,499.338 352.5,503C 351.966,506.578 350.299,509.411 347.5,511.5 Z"/></g>
</svg>
