<?xml version="1.0" encoding="UTF-8"?>
<!DOCTYPE svg PUBLIC "-//W3C//DTD SVG 1.1//EN" "http://www.w3.org/Graphics/SVG/1.1/DTD/svg11.dtd">
<svg xmlns="http://www.w3.org/2000/svg" version="1.1" width="512px" height="512px" style="shape-rendering:geometricPrecision; text-rendering:geometricPrecision; image-rendering:optimizeQuality; fill-rule:evenodd; clip-rule:evenodd" xmlns:xlink="http://www.w3.org/1999/xlink">
<g><path style="opacity:0.974" fill="#020101" d="M 144.5,-0.5 C 147.5,-0.5 150.5,-0.5 153.5,-0.5C 158.558,6.59676 163.392,13.9301 168,21.5C 175.66,31.009 182.993,30.6756 190,20.5C 194.511,13.4717 199.011,6.47172 203.5,-0.5C 206.5,-0.5 209.5,-0.5 212.5,-0.5C 214.696,0.854084 216.196,2.85408 217,5.5C 218.11,14.0529 220.11,22.3863 223,30.5C 225.615,37.7258 230.449,39.8924 237.5,37C 245.353,32.8175 252.353,27.4842 258.5,21C 266.371,17.8958 271.371,20.3958 273.5,28.5C 270.852,38.3374 270.019,48.3374 271,58.5C 271.69,61.196 273.19,63.3626 275.5,65C 279.5,65.6667 283.5,65.6667 287.5,65C 294.829,62.7225 302.163,60.5558 309.5,58.5C 316.477,59.4285 319.31,63.4285 318,70.5C 312.611,79.1107 308.445,88.2774 305.5,98C 305.833,98.5 306.167,99 306.5,99.5C 339.847,80.0728 373.514,79.5728 407.5,98C 443.579,122.904 454.913,156.237 441.5,198C 478.634,210.626 501.968,235.792 511.5,273.5C 511.5,282.167 511.5,290.833 511.5,299.5C 503.451,333.738 483.118,357.904 450.5,372C 411.749,386.676 374.082,384.342 337.5,365C 333.722,362.888 330.222,360.388 327,357.5C 315.326,372.923 300.159,383.257 281.5,388.5C 281.942,399.116 281.442,409.783 280,420.5C 272.198,437.989 258.698,445.489 239.5,443C 215.71,434.248 207.876,417.748 216,393.5C 217.046,391.91 218.213,390.41 219.5,389C 200.323,383.754 184.99,373.087 173.5,357C 136.375,366.518 106.875,355.684 85,324.5C 79.5915,314.108 76.0915,303.108 74.5,291.5C 65.5485,293.238 56.8818,295.905 48.5,299.5C 40.3121,297.854 37.4787,293.187 40,285.5C 44.4686,278.229 48.1353,270.562 51,262.5C 51.8166,259.036 51.4833,255.702 50,252.5C 46.9508,250.036 43.4508,248.536 39.5,248C 30.8333,247.333 22.1667,246.667 13.5,246C 9.32943,242.146 8.4961,237.646 11,232.5C 19.0391,226.128 26.0391,218.795 32,210.5C 33.8603,204.041 31.6936,199.208 25.5,196C 19.411,192.748 13.0777,190.082 6.5,188C 3.7982,186.988 1.46486,185.488 -0.5,183.5C -0.5,180.5 -0.5,177.5 -0.5,174.5C 0.267389,173.828 0.934056,172.995 1.5,172C 9.24924,168.861 16.9159,165.528 24.5,162C 28.9945,159.51 31.9945,155.844 33.5,151C 31.9874,146.809 29.8207,142.976 27,139.5C 21.0315,134.533 15.3648,129.199 10,123.5C 8.34511,118.063 9.84511,113.897 14.5,111C 23.5367,110.765 32.5367,110.098 41.5,109C 49.8215,107.52 52.9882,102.687 51,94.5C 48.1353,86.4377 44.4686,78.7711 40,71.5C 37.3093,63.9244 39.976,59.5911 48,58.5C 55.5594,60.4643 63.0594,62.6309 70.5,65C 74.9558,65.8673 79.2891,65.5339 83.5,64C 85.987,60.2239 87.3203,56.0572 87.5,51.5C 86.0026,42.5295 85.1692,33.5295 85,24.5C 88.5099,19.5533 93.0099,18.3866 98.5,21C 105.273,27.107 112.607,32.4403 120.5,37C 126.667,39.5057 131.167,37.6723 134,31.5C 137.185,22.3944 139.519,13.0611 141,3.5C 142.376,2.29493 143.542,0.961599 144.5,-0.5 Z"/></g>
<g><path style="opacity:1" fill="#ec7800" d="M 212.5,46.5 C 208.154,46.6657 203.821,46.499 199.5,46C 197.473,44.1207 195.14,42.954 192.5,42.5C 197.096,39.7393 200.93,36.0727 204,31.5C 205.805,37.1128 208.638,42.1128 212.5,46.5 Z"/></g>
<g><path style="opacity:1" fill="#fb9501" d="M 192.5,42.5 C 195.14,42.954 197.473,44.1207 199.5,46C 203.821,46.499 208.154,46.6657 212.5,46.5C 218.487,53.5886 226.153,56.5886 235.5,55.5C 237.046,70.05 245.046,76.3833 259.5,74.5C 264.071,78.2826 269.071,81.2826 274.5,83.5C 271.731,90.5697 270.898,97.9031 272,105.5C 273.061,108.562 274.894,111.062 277.5,113C 275.627,114.704 273.96,116.537 272.5,118.5C 241.033,76.0616 199.367,60.5616 147.5,72C 98.313,89.5208 71.6463,124.354 67.5,176.5C 67.9822,201.109 74.9822,223.609 88.5,244C 82.7002,253.1 78.7002,262.933 76.5,273.5C 73.1637,274.24 69.8304,274.906 66.5,275.5C 66.1667,275.167 65.8333,274.833 65.5,274.5C 74.2232,249.442 65.5566,234.608 39.5,230C 56.4914,209.731 53.8247,192.565 31.5,178.5C 53.2648,165.025 56.2648,148.192 40.5,128C 62.407,123.682 71.5736,110.516 68,88.5C 67.5503,86.481 66.717,84.6477 65.5,83C 91.9549,86.6917 105.122,75.1917 105,48.5C 127.679,61.6182 143.845,55.9515 153.5,31.5C 163.749,45.4825 176.749,49.1491 192.5,42.5 Z"/></g>
<g><path style="opacity:1" fill="#f07900" d="M 259.5,74.5 C 245.046,76.3833 237.046,70.05 235.5,55.5C 241.663,54.6159 247.163,52.2825 252,48.5C 251.985,57.9496 254.485,66.6163 259.5,74.5 Z"/></g>
<g><path style="opacity:1" fill="#f07a00" d="M 272.5,118.5 C 273.96,116.537 275.627,114.704 277.5,113C 274.894,111.062 273.061,108.562 272,105.5C 270.898,97.9031 271.731,90.5697 274.5,83.5C 280.298,83.3384 285.964,83.3384 291.5,83.5C 287.548,93.1639 287.548,102.831 291.5,112.5C 286.594,117.977 282.427,123.977 279,130.5C 276.554,126.606 274.388,122.606 272.5,118.5 Z"/></g>
<g><path style="opacity:1" fill="#fddd00" d="M 201.5,87.5 C 225.397,101.746 242.063,122.08 251.5,148.5C 249.955,149.452 248.288,149.785 246.5,149.5C 231.326,148.749 216.993,151.749 203.5,158.5C 183.298,162.343 168.464,173.343 159,191.5C 155.984,198.515 154.817,205.848 155.5,213.5C 149.974,213.179 144.64,213.512 139.5,214.5C 124.981,216.394 112.147,222.06 101,231.5C 77.0486,191.519 79.382,153.186 108,116.5C 133.712,89.4303 164.879,79.7636 201.5,87.5 Z"/></g>
<g><path style="opacity:1" fill="#f7bc07" d="M 201.5,87.5 C 235.794,97.6263 258.461,119.793 269.5,154C 269.167,154.5 268.833,155 268.5,155.5C 261.276,152.598 253.943,150.598 246.5,149.5C 248.288,149.785 249.955,149.452 251.5,148.5C 242.063,122.08 225.397,101.746 201.5,87.5 Z"/></g>
<g><path style="opacity:1" fill="#f4f4f4" d="M 374.5,103.5 C 390.615,113.617 401.949,127.617 408.5,145.5C 408.457,146.416 408.124,147.083 407.5,147.5C 399.051,132.752 386.385,123.585 369.5,120C 364.167,119.333 358.833,119.333 353.5,120C 348.167,125 348.167,130 353.5,135C 365.365,135.288 376.031,138.955 385.5,146C 392.42,152.676 395.92,160.843 396,170.5C 398.354,176.095 402.521,177.928 408.5,176C 409.373,174.955 410.373,174.122 411.5,173.5C 411.698,184.027 409.032,194.027 403.5,203.5C 409.72,206.019 416.053,208.352 422.5,210.5C 425.053,211.805 427.72,212.805 430.5,213.5C 443.959,221.782 455.459,232.449 465,245.5C 471.531,255.756 475.697,266.923 477.5,279C 477.316,280.376 476.649,281.209 475.5,281.5C 471.114,277.519 466.614,277.519 462,281.5C 458.295,306.878 443.795,322.378 418.5,328C 411.885,329.108 405.218,329.775 398.5,330C 391.412,334.53 390.745,339.863 396.5,346C 423.596,347.971 446.43,339.138 465,319.5C 468.456,315.211 471.289,310.544 473.5,305.5C 474.124,305.917 474.457,306.584 474.5,307.5C 466.647,330.68 451.98,348.013 430.5,359.5C 392.208,370.575 358.208,362.741 328.5,336C 324.001,333.633 320.168,334.467 317,338.5C 309.116,355.04 296.282,365.874 278.5,371C 257.587,376.277 236.92,375.61 216.5,369C 201.864,363.954 191.364,354.454 185,340.5C 182.452,336.64 178.952,335.14 174.5,336C 145.459,348.865 121.292,342.698 102,317.5C 85.8623,286.232 91.6957,260.065 119.5,239C 141.663,226.847 162.996,228.18 183.5,243C 190.539,244.456 194.205,241.623 194.5,234.5C 183.771,210.583 188.771,190.749 209.5,175C 231.52,162.879 252.854,163.879 273.5,178C 278.625,179.569 282.459,178.069 285,173.5C 286.578,137.851 304.412,114.685 338.5,104C 350.474,100.918 362.474,100.751 374.5,103.5 Z"/></g>
<g><path style="opacity:1" fill="#ccd5d9" d="M 374.5,103.5 C 415.406,115.323 433.24,142.323 428,184.5C 425.781,190.998 423.281,197.331 420.5,203.5C 420.772,205.978 421.438,208.311 422.5,210.5C 416.053,208.352 409.72,206.019 403.5,203.5C 409.032,194.027 411.698,184.027 411.5,173.5C 413.406,164.359 412.073,155.692 407.5,147.5C 408.124,147.083 408.457,146.416 408.5,145.5C 401.949,127.617 390.615,113.617 374.5,103.5 Z"/></g>
<g><path style="opacity:1" fill="#050505" d="M 407.5,147.5 C 412.073,155.692 413.406,164.359 411.5,173.5C 410.373,174.122 409.373,174.955 408.5,176C 402.521,177.928 398.354,176.095 396,170.5C 395.92,160.843 392.42,152.676 385.5,146C 376.031,138.955 365.365,135.288 353.5,135C 348.167,130 348.167,125 353.5,120C 358.833,119.333 364.167,119.333 369.5,120C 386.385,123.585 399.051,132.752 407.5,147.5 Z"/></g>
<g><path style="opacity:1" fill="#f6bb07" d="M 203.5,158.5 C 181.87,172.089 171.536,191.756 172.5,217.5C 161.664,214.941 150.664,213.941 139.5,214.5C 144.64,213.512 149.974,213.179 155.5,213.5C 154.817,205.848 155.984,198.515 159,191.5C 168.464,173.343 183.298,162.343 203.5,158.5 Z"/></g>
<g><path style="opacity:1" fill="#ccd4d8" d="M 430.5,213.5 C 462.2,221.701 483.033,241.368 493,272.5C 497.124,307.374 483.958,333.54 453.5,351C 446.222,354.976 438.555,357.81 430.5,359.5C 451.98,348.013 466.647,330.68 474.5,307.5C 474.457,306.584 474.124,305.917 473.5,305.5C 475.225,300.102 476.558,294.602 477.5,289C 477.59,286.256 476.923,283.756 475.5,281.5C 476.649,281.209 477.316,280.376 477.5,279C 475.697,266.923 471.531,255.756 465,245.5C 455.459,232.449 443.959,221.782 430.5,213.5 Z"/></g>
<g><path style="opacity:1" fill="#040404" d="M 475.5,281.5 C 476.923,283.756 477.59,286.256 477.5,289C 476.558,294.602 475.225,300.102 473.5,305.5C 471.289,310.544 468.456,315.211 465,319.5C 446.43,339.138 423.596,347.971 396.5,346C 390.745,339.863 391.412,334.53 398.5,330C 405.218,329.775 411.885,329.108 418.5,328C 443.795,322.378 458.295,306.878 462,281.5C 466.614,277.519 471.114,277.519 475.5,281.5 Z"/></g>
<g><path style="opacity:0.954" fill="#000101" d="M 111.5,374.5 C 121.274,373.302 128.44,376.969 133,385.5C 136.267,401.752 136.933,418.086 135,434.5C 127.314,453.928 113.148,461.762 92.5,458C 73.581,451.067 65.4144,437.567 68,417.5C 70.0227,408.804 74.5227,401.637 81.5,396C 90.8449,387.807 100.845,380.64 111.5,374.5 Z"/></g>
<g><path style="opacity:1" fill="#00b7ce" d="M 240.5,391.5 C 248.167,391.5 255.833,391.5 263.5,391.5C 264.954,399.529 264.787,407.529 263,415.5C 256.935,425.739 248.435,428.239 237.5,423C 231.348,417.878 229.182,411.378 231,403.5C 233.619,399.05 236.786,395.05 240.5,391.5 Z"/></g>
<g><path style="opacity:1" fill="#00b9d0" d="M 114.5,392.5 C 115.649,392.791 116.316,393.624 116.5,395C 118.384,406.77 118.884,418.603 118,430.5C 114.108,439.575 107.275,443.408 97.5,442C 87.7885,438.079 83.6218,430.912 85,420.5C 86.9794,416.044 89.8128,412.21 93.5,409C 100.569,403.48 107.569,397.98 114.5,392.5 Z"/></g>
<g><path style="opacity:0.956" fill="#000101" d="M 178.5,511.5 C 172.833,511.5 167.167,511.5 161.5,511.5C 141.15,503.813 132.983,489.146 137,467.5C 139.571,460.261 143.737,454.095 149.5,449C 158.218,441.948 167.218,435.281 176.5,429C 185.946,425.489 193.779,427.656 200,435.5C 203.975,451.252 205.308,467.252 204,483.5C 200.872,497.792 192.372,507.125 178.5,511.5 Z"/></g>
<g><path style="opacity:0.957" fill="#000000" d="M 315.5,511.5 C 309.833,511.5 304.167,511.5 298.5,511.5C 276.992,503.492 268.825,488.158 274,465.5C 279.027,456.137 285.86,448.303 294.5,442C 299.991,437.754 305.658,433.754 311.5,430C 321.947,425.047 330.447,427.214 337,436.5C 340.751,453.015 341.751,469.682 340,486.5C 336.326,499.34 328.159,507.673 315.5,511.5 Z"/></g>
<g><path style="opacity:1" fill="#00b9d0" d="M 182.5,445.5 C 183.5,445.5 184.5,445.5 185.5,445.5C 186.51,457.817 186.677,470.15 186,482.5C 183.456,490.542 177.956,494.542 169.5,494.5C 157.996,492.827 152.496,486.16 153,474.5C 154.617,470.103 157.117,466.269 160.5,463C 167.733,456.922 175.066,451.089 182.5,445.5 Z"/></g>
<g><path style="opacity:1" fill="#00b8d0" d="M 319.5,445.5 C 320.931,445.881 321.764,446.881 322,448.5C 323.46,459.798 323.793,471.131 323,482.5C 318.902,492.767 311.402,496.6 300.5,494C 289.812,488.123 286.978,479.623 292,468.5C 300.48,459.839 309.647,452.173 319.5,445.5 Z"/></g>
</svg>
