<?xml version="1.0" encoding="UTF-8"?>
<!DOCTYPE svg PUBLIC "-//W3C//DTD SVG 1.1//EN" "http://www.w3.org/Graphics/SVG/1.1/DTD/svg11.dtd">
<svg xmlns="http://www.w3.org/2000/svg" version="1.1" width="512px" height="512px" style="shape-rendering:geometricPrecision; text-rendering:geometricPrecision; image-rendering:optimizeQuality; fill-rule:evenodd; clip-rule:evenodd" xmlns:xlink="http://www.w3.org/1999/xlink">
<g><path style="opacity:1" fill="#ecaf2a" d="M 250.5,-0.5 C 254.5,-0.5 258.5,-0.5 262.5,-0.5C 268.839,2.3395 273.339,7.00617 276,13.5C 277.592,30.1215 277.925,46.7881 277,63.5C 273.711,78.7169 264.544,84.7169 249.5,81.5C 256.995,79.5089 262.162,74.8423 265,67.5C 265.167,58.6667 265.333,49.8333 265.5,41C 265.629,31.0967 265.129,21.2634 264,11.5C 260.522,6.17942 256.022,2.17942 250.5,-0.5 Z"/></g>
<g><path style="opacity:0.993" fill="#febd2b" d="M 248.5,-0.5 C 249.167,-0.5 249.833,-0.5 250.5,-0.5C 256.022,2.17942 260.522,6.17942 264,11.5C 265.129,21.2634 265.629,31.0967 265.5,41C 265.333,49.8333 265.167,58.6667 265,67.5C 262.162,74.8423 256.995,79.5089 249.5,81.5C 242.352,79.8566 237.518,75.5233 235,68.5C 233,50.1667 233,31.8333 235,13.5C 237.687,6.98101 242.187,2.31434 248.5,-0.5 Z"/></g>
<g><path style="opacity:0.988" fill="#febc2a" d="M 381.5,32.5 C 380.761,32.369 380.094,32.5357 379.5,33C 385.19,40.58 386.023,48.7467 382,57.5C 375.414,68.3367 369.081,79.3367 363,90.5C 357.476,100.01 349.31,104.343 338.5,103.5C 335.101,101.053 332.935,97.7197 332,93.5C 331.333,89.1667 331.333,84.8333 332,80.5C 339.399,66.7035 347.066,53.0369 355,39.5C 362.274,30.6784 371.107,28.3451 381.5,32.5 Z"/></g>
<g><path style="opacity:1" fill="#ecae29" d="M 164.5,107.5 C 170.934,97.6593 171.1,87.6593 165,77.5C 158.333,66.1667 151.667,54.8333 145,43.5C 139.092,38.1174 132.259,35.4508 124.5,35.5C 129.949,30.8804 136.283,29.3804 143.5,31C 148.741,32.2388 152.908,35.0721 156,39.5C 163,51.5 170,63.5 177,75.5C 181.478,86.0353 179.978,95.5353 172.5,104C 170.182,105.993 167.516,107.159 164.5,107.5 Z"/></g>
<g><path style="opacity:1" fill="#ecae2a" d="M 381.5,32.5 C 391.996,37.4922 396.163,45.8256 394,57.5C 387.189,71.1227 379.855,84.456 372,97.5C 365.989,106.842 357.489,110.342 346.5,108C 343.316,107.246 340.649,105.746 338.5,103.5C 349.31,104.343 357.476,100.01 363,90.5C 369.081,79.3367 375.414,68.3367 382,57.5C 386.023,48.7467 385.19,40.58 379.5,33C 380.094,32.5357 380.761,32.369 381.5,32.5 Z"/></g>
<g><path style="opacity:0.989" fill="#febc2a" d="M 124.5,35.5 C 132.259,35.4508 139.092,38.1174 145,43.5C 151.667,54.8333 158.333,66.1667 165,77.5C 171.1,87.6593 170.934,97.6593 164.5,107.5C 153.684,110.39 145.184,107.057 139,97.5C 131.145,84.456 123.811,71.1227 117,57.5C 115.047,48.5239 117.547,41.1906 124.5,35.5 Z"/></g>
<g><path style="opacity:1" fill="#ffe132" d="M 396.5,210.5 C 341.943,222.395 288.276,237.895 235.5,257C 207.789,263.155 182.789,257.488 160.5,240C 144.439,227.113 131.106,211.947 120.5,194.5C 140.763,150.67 174.43,122.837 221.5,111C 287.048,98.8819 339.548,119.382 379,172.5C 386.734,184.3 392.567,196.967 396.5,210.5 Z"/></g>
<g><path style="opacity:0.989" fill="#febc2a" d="M 475.5,124.5 C 475.549,132.259 472.883,139.092 467.5,145C 453.402,153.434 439.069,161.434 424.5,169C 416.716,170.708 409.716,169.208 403.5,164.5C 400.49,153.664 403.823,145.164 413.5,139C 426.544,131.145 439.877,123.811 453.5,117C 462.476,115.047 469.809,117.547 475.5,124.5 Z"/></g>
<g><path style="opacity:1" fill="#ecae2a" d="M 103.5,172.5 C 104.157,163.331 100.824,155.831 93.5,150C 79.7466,141.792 65.7466,134.125 51.5,127C 43.7519,125.134 37.0852,126.968 31.5,132.5C 35.5896,119.946 44.2562,114.779 57.5,117C 71.1227,123.811 84.456,131.145 97.5,139C 107.839,146.018 111.006,155.518 107,167.5C 105.97,169.346 104.804,171.013 103.5,172.5 Z"/></g>
<g><path style="opacity:0.988" fill="#febc2a" d="M 103.5,172.5 C 100.862,175.621 97.5282,177.788 93.5,179C 88.0788,179.839 82.7455,179.506 77.5,178C 64.8333,170.667 52.1667,163.333 39.5,156C 31.6923,149.742 29.0256,141.909 31.5,132.5C 37.0852,126.968 43.7519,125.134 51.5,127C 65.7466,134.125 79.7466,141.792 93.5,150C 100.824,155.831 104.157,163.331 103.5,172.5 Z"/></g>
<g><path style="opacity:1" fill="#ecae2a" d="M 475.5,124.5 C 480.12,129.949 481.62,136.283 480,143.5C 478.761,148.741 475.928,152.908 471.5,156C 458.833,163.333 446.167,170.667 433.5,178C 423.486,181.369 414.653,179.535 407,172.5C 405.007,170.182 403.841,167.516 403.5,164.5C 409.716,169.208 416.716,170.708 424.5,169C 439.069,161.434 453.402,153.434 467.5,145C 472.883,139.092 475.549,132.259 475.5,124.5 Z"/></g>
<g><path style="opacity:1" fill="#fdeb73" d="M 279.5,138.5 C 297.263,137.471 312.097,143.471 324,156.5C 329.639,164.094 330.972,172.427 328,181.5C 323.313,188.265 316.813,192.099 308.5,193C 290.404,194.703 275.571,188.536 264,174.5C 254.72,156.073 259.887,144.073 279.5,138.5 Z"/></g>
<g><path style="opacity:0.996" fill="#ffbd2b" d="M 120.5,194.5 C 131.106,211.947 144.439,227.113 160.5,240C 182.789,257.488 207.789,263.155 235.5,257C 288.276,237.895 341.943,222.395 396.5,210.5C 414.198,275.901 397.198,330.401 345.5,374C 316.106,395.629 283.106,405.462 246.5,403.5C 259.433,382.388 261.933,360.055 254,336.5C 239.937,309.916 218.437,301.083 189.5,310C 168.43,318.237 153.43,332.737 144.5,353.5C 114.077,318.511 102.243,277.844 109,231.5C 110.958,218.465 114.792,206.132 120.5,194.5 Z"/></g>
<g><path style="opacity:0.993" fill="#febc2b" d="M 511.5,248.5 C 511.5,249.167 511.5,249.833 511.5,250.5C 508.745,256.424 504.411,260.924 498.5,264C 488.904,265.128 479.237,265.628 469.5,265.5C 460.833,265.333 452.167,265.167 443.5,265C 436.622,261.953 431.622,257.119 428.5,250.5C 431.25,240.919 437.583,235.419 447.5,234C 464.212,233.075 480.879,233.408 497.5,235C 504.019,237.687 508.686,242.187 511.5,248.5 Z"/></g>
<g><path style="opacity:1" fill="#ecaf2a" d="M 81.5,261.5 C 79.5089,254.005 74.8423,248.838 67.5,246C 58.8333,245.833 50.1667,245.667 41.5,245.5C 31.7631,245.372 22.0964,245.872 12.5,247C 6.56289,250.101 2.22955,254.601 -0.5,260.5C -0.5,256.5 -0.5,252.5 -0.5,248.5C 2.31434,242.187 6.98101,237.687 13.5,235C 30.1215,233.408 46.7881,233.075 63.5,234C 78.7169,237.289 84.7169,246.456 81.5,261.5 Z"/></g>
<g><path style="opacity:0.993" fill="#febc2b" d="M 81.5,261.5 C 79.8566,268.648 75.5233,273.482 68.5,276C 50.1667,278 31.8333,278 13.5,276C 6.98101,273.313 2.31434,268.813 -0.5,262.5C -0.5,261.833 -0.5,261.167 -0.5,260.5C 2.22955,254.601 6.56289,250.101 12.5,247C 22.0964,245.872 31.7631,245.372 41.5,245.5C 50.1667,245.667 58.8333,245.833 67.5,246C 74.8423,248.838 79.5089,254.005 81.5,261.5 Z"/></g>
<g><path style="opacity:1" fill="#ecaf2a" d="M 428.5,250.5 C 431.622,257.119 436.622,261.953 443.5,265C 452.167,265.167 460.833,265.333 469.5,265.5C 479.237,265.628 488.904,265.128 498.5,264C 504.411,260.924 508.745,256.424 511.5,250.5C 511.5,254.5 511.5,258.5 511.5,262.5C 508.686,268.813 504.019,273.313 497.5,276C 480.879,277.592 464.212,277.925 447.5,277C 432.982,274.155 426.649,265.322 428.5,250.5 Z"/></g>
<g><path style="opacity:0.998" fill="#fec42c" d="M 246.5,403.5 C 205.458,400.644 171.458,383.977 144.5,353.5C 153.43,332.737 168.43,318.237 189.5,310C 218.437,301.083 239.937,309.916 254,336.5C 261.933,360.055 259.433,382.388 246.5,403.5 Z"/></g>
<g><path style="opacity:1" fill="#ecae29" d="M 107.5,346.5 C 98.5276,339.338 89.1943,338.838 79.5,345C 67.5,352 55.5,359 43.5,366C 37.958,371.805 35.2914,378.638 35.5,386.5C 30.8804,381.051 29.3804,374.717 31,367.5C 32.2388,362.259 35.0721,358.092 39.5,355C 52.1667,347.667 64.8333,340.333 77.5,333C 87.5138,329.631 96.3472,331.465 104,338.5C 105.993,340.818 107.159,343.484 107.5,346.5 Z"/></g>
<g><path style="opacity:0.989" fill="#febc2a" d="M 478.5,381.5 C 478.631,380.761 478.464,380.094 478,379.5C 471.14,384.505 463.64,385.671 455.5,383C 442.833,375.667 430.167,368.333 417.5,361C 410.089,354.943 407.089,347.11 408.5,337.5C 410.8,334.676 413.8,332.843 417.5,332C 421.833,331.333 426.167,331.333 430.5,332C 444.296,339.399 457.963,347.066 471.5,355C 480.322,362.274 482.655,371.107 478.5,381.5 Z"/></g>
<g><path style="opacity:1" fill="#ecae2a" d="M 408.5,337.5 C 407.089,347.11 410.089,354.943 417.5,361C 430.167,368.333 442.833,375.667 455.5,383C 463.64,385.671 471.14,384.505 478,379.5C 478.464,380.094 478.631,380.761 478.5,381.5C 473.508,391.996 465.174,396.163 453.5,394C 439.877,387.189 426.544,379.855 413.5,372C 404.158,365.989 400.658,357.489 403,346.5C 403.872,342.819 405.706,339.819 408.5,337.5 Z"/></g>
<g><path style="opacity:0.986" fill="#febc2a" d="M 107.5,346.5 C 110.39,357.316 107.057,365.816 97.5,372C 84.456,379.855 71.1227,387.189 57.5,394C 48.5239,395.953 41.1906,393.453 35.5,386.5C 35.2914,378.638 37.958,371.805 43.5,366C 55.5,359 67.5,352 79.5,345C 89.1943,338.838 98.5276,339.338 107.5,346.5 Z"/></g>
<g><path style="opacity:0.987" fill="#febc2a" d="M 386.5,475.5 C 377.037,475.951 369.537,472.285 364,464.5C 357,452.167 350,439.833 343,427.5C 340.378,419.558 341.212,412.058 345.5,405C 344.906,404.536 344.239,404.369 343.5,404.5C 355.296,399.931 364.796,402.931 372,413.5C 379.855,426.544 387.189,439.877 394,453.5C 395.953,462.476 393.453,469.809 386.5,475.5 Z"/></g>
<g><path style="opacity:1" fill="#ecae2a" d="M 173.5,408.5 C 163.757,406.69 155.924,409.69 150,417.5C 142.667,430.167 135.333,442.833 128,455.5C 125.329,463.64 126.495,471.14 131.5,478C 130.906,478.464 130.239,478.631 129.5,478.5C 118.998,473.496 114.831,465.163 117,453.5C 123.811,439.877 131.145,426.544 139,413.5C 145.011,404.158 153.511,400.658 164.5,403C 168.181,403.872 171.181,405.706 173.5,408.5 Z"/></g>
<g><path style="opacity:1" fill="#ecae2a" d="M 343.5,404.5 C 344.239,404.369 344.906,404.536 345.5,405C 341.212,412.058 340.378,419.558 343,427.5C 350,439.833 357,452.167 364,464.5C 369.537,472.285 377.037,475.951 386.5,475.5C 381.051,480.12 374.717,481.62 367.5,480C 362.259,478.761 358.092,475.928 355,471.5C 347.066,457.963 339.399,444.296 332,430.5C 329.791,421.371 331.958,413.537 338.5,407C 340.078,405.906 341.745,405.072 343.5,404.5 Z"/></g>
<g><path style="opacity:0.988" fill="#febc2a" d="M 173.5,408.5 C 176.294,410.819 178.128,413.819 179,417.5C 179.667,421.833 179.667,426.167 179,430.5C 171.601,444.296 163.934,457.963 156,471.5C 148.726,480.322 139.893,482.655 129.5,478.5C 130.239,478.631 130.906,478.464 131.5,478C 126.495,471.14 125.329,463.64 128,455.5C 135.333,442.833 142.667,430.167 150,417.5C 155.924,409.69 163.757,406.69 173.5,408.5 Z"/></g>
<g><path style="opacity:1" fill="#ecae29" d="M 261.5,429.5 C 255.118,431.039 250.285,434.706 247,440.5C 245.871,450.263 245.371,460.097 245.5,470C 245.667,478.833 245.833,487.667 246,496.5C 249.021,503.353 253.855,508.353 260.5,511.5C 256.5,511.5 252.5,511.5 248.5,511.5C 242.187,508.686 237.687,504.019 235,497.5C 233.408,480.879 233.075,464.212 234,447.5C 237.289,432.283 246.456,426.283 261.5,429.5 Z"/></g>
<g><path style="opacity:0.993" fill="#febd2b" d="M 261.5,429.5 C 268.648,431.143 273.482,435.477 276,442.5C 278,460.833 278,479.167 276,497.5C 273.313,504.019 268.813,508.686 262.5,511.5C 261.833,511.5 261.167,511.5 260.5,511.5C 253.855,508.353 249.021,503.353 246,496.5C 245.833,487.667 245.667,478.833 245.5,470C 245.371,460.097 245.871,450.263 247,440.5C 250.285,434.706 255.118,431.039 261.5,429.5 Z"/></g>
</svg>
